<?xml version="1.0" encoding="utf-8"?>
<!-- Generator: Adobe Illustrator 23.1.1, SVG Export Plug-In . SVG Version: 6.00 Build 0)  -->
<svg version="1.1" id="Layer_1" xmlns="http://www.w3.org/2000/svg" xmlns:xlink="http://www.w3.org/1999/xlink" x="0px" y="0px"
	 viewBox="0 0 16 16" style="enable-background:new 0 0 16 16;" xml:space="preserve">
<style type="text/css">
	.st0{fill-rule:evenodd;clip-rule:evenodd;fill:#FFFFFF;}
</style>
<title>modimg_asset</title>
<g id="modimg_asset">
	<g id="Fill">
		<path class="st0" d="M6,12c-1.1,0-2-0.9-2-2s0.9-2,2-2s2,0.9,2,2C8,11.1,7.1,12,6,12L6,12z M6,9c-0.6,0-1,0.4-1,1c0,0.6,0.4,1,1,1
			s1-0.4,1-1C7,9.4,6.6,9,6,9L6,9z M15,3c0-1.1-0.9-2-2-2c-0.3,0-0.6,0.1-0.9,0.2L3.9,5.5c-2,0.9-3.1,3.1-2.8,5.3s2,3.9,4.2,4.2
			s4.3-0.8,5.2-2.9l4.2-8.2C14.9,3.6,15,3.3,15,3z M13,2c0.6,0,1,0.4,1,1s-0.4,1-1,1s-1-0.4-1-1C12,2.4,12.4,2,13,2z M11,2.9
			C11,2.9,11,3,11,2.9C11,4.1,11.9,5,13,5c0,0,0.1,0,0.1,0l-2.2,4.2c-0.4-2.1-2-3.7-4.1-4.1L11,2.9z M6,14c-2.2,0-4-1.8-4-4
			s1.8-4,4-4s4,1.8,4,4C10,12.2,8.2,14,6,14L6,14z"/>
	</g>
</g>
</svg>
