<?xml version="1.0" encoding="utf-8"?>
<!-- Generator: Adobe Illustrator 23.1.1, SVG Export Plug-In . SVG Version: 6.00 Build 0)  -->
<svg version="1.1" id="Layer_1" xmlns="http://www.w3.org/2000/svg" xmlns:xlink="http://www.w3.org/1999/xlink" x="0px" y="0px"
	 viewBox="0 0 16 16" style="enable-background:new 0 0 16 16;" xml:space="preserve">
<style type="text/css">
	.st0{fill:#FFFFFF;}
</style>
<title>modimg_sla</title>
<g id="modimg_sla">
	<g id="partnership">
		<path id="Shape" class="st0" d="M4,4.5c-1.1,0-2-0.9-2-2s0.9-2,2-2s2,0.9,2,2c0,0.5-0.2,1-0.6,1.4S4.5,4.5,4,4.5z M4,1.5
			c-0.6,0-1,0.4-1,1s0.4,1,1,1s1-0.4,1-1C5,2.2,4.9,2,4.7,1.8C4.5,1.6,4.3,1.5,4,1.5z"/>
		<path class="st0" d="M12,4.5c-1.1,0-2-0.9-2-2s0.9-2,2-2s2,0.9,2,2c0,0.5-0.2,1-0.6,1.4C13,4.3,12.5,4.5,12,4.5z M12,1.5
			c-0.6,0-1,0.4-1,1s0.4,1,1,1s1-0.4,1-1c0-0.3-0.1-0.5-0.3-0.7S12.3,1.5,12,1.5z"/>
		<path id="Path" class="st0" d="M13,15h-2c-0.6,0-1-0.4-1-1v-3.5h1V14h2V9.5h1v-3C14,6.2,13.8,6,13.5,6h-3.2L8,10L5.7,6H2.5
			C2.2,6,2,6.2,2,6.5v3h1V14h2v-3.5h1V14c0,0.6-0.4,1-1,1H3c-0.6,0-1-0.4-1-1v-3.5c-0.6,0-1-0.4-1-1v-3C1,5.7,1.7,5,2.5,5h3.8L8,8
			l1.7-3h3.8C14.3,5,15,5.7,15,6.5v3c0,0.6-0.4,1-1,1V14C14,14.6,13.6,15,13,15z"/>
	</g>
</g>
</svg>
