<?xml version="1.0" encoding="utf-8"?>
<!-- Generator: Adobe Illustrator 23.1.1, SVG Export Plug-In . SVG Version: 6.00 Build 0)  -->
<svg version="1.1" id="Layer_1" xmlns="http://www.w3.org/2000/svg" xmlns:xlink="http://www.w3.org/1999/xlink" x="0px" y="0px"
	 viewBox="0 0 16 16" style="enable-background:new 0 0 16 16;" xml:space="preserve">
<style type="text/css">
	.st0{fill:#FFFFFF;}
</style>
<title>modimg_contract</title>
<g id="modimg_contract">
	<g id="policy">
		<path id="Shape" class="st0" d="M15,9c0-1.4-0.9-2.6-2.3-2.9S10,6.4,9.3,7.6S9,10.3,10,11.2V15l2-0.9l2,0.9v-3.8
			C14.6,10.7,15,9.9,15,9L15,9z M13,13.4l-1-0.5l-1,0.5v-1.6c0.6,0.2,1.4,0.2,2,0V13.4z M12,11c-1.1,0-2-0.9-2-2s0.9-2,2-2
			s2,0.9,2,2S13.1,11,12,11L12,11z"/>
		<rect id="Rectangle" x="4.5" y="7" class="st0" width="3.5" height="1"/>
		<rect x="4.5" y="4" class="st0" width="5" height="1"/>
		<path id="Path" class="st0" d="M3,15c-0.6,0-1-0.4-1-1V2c0-0.6,0.4-1,1-1h8c0.6,0,1,0.4,1,1v2h-1V2H3v12h5v1H3z"/>
	</g>
</g>
</svg>
