<?xml version="1.0" encoding="utf-8"?>
<!-- Generator: Adobe Illustrator 23.1.1, SVG Export Plug-In . SVG Version: 6.00 Build 0)  -->
<svg version="1.1" id="Layer_1" xmlns="http://www.w3.org/2000/svg" xmlns:xlink="http://www.w3.org/1999/xlink" x="0px" y="0px"
	 viewBox="0 0 16 16" style="enable-background:new 0 0 16 16;" xml:space="preserve">
<style type="text/css">
	.st0{fill:#FFFFFF;}
</style>
<title>modimg_sd</title>
<g>
	<path class="st0" d="M5.9,2.6h-4C1.1,2.6,0.5,3.2,0.5,4v5.7h1v-6h4.4V2.6z"/>
	<path class="st0" d="M6.7,11.3H3.3V5.5h2.6V4.4H3.2c-0.6,0-1,0.4-1,1v6c0,0.6,0.4,1,1,1h3.5V11.3z"/>
	<path class="st0" d="M11.7,11.3H8.6l-2.1,2.9l-0.1,0.1l0.9,0.7l1.8-2.6h2.5c0.6,0,1-0.4,1-1v-3h-1v2.9H11.7z"/>
	<path class="st0" d="M14.8,6.8V6.2c0-2.1-1.6-3.8-3.7-4V1.7h1V0.9H9.2v0.9h1v0.5c-2,0.1-3.6,1.8-3.7,3.9v0.6H5.9v0.9h9.6V6.8H14.8z
		 M10.7,3c1.5,0,2.8,1,3.2,2.4H7.5C7.9,4,9.2,3,10.7,3z M13.9,6.8H7.4V6.3h6.5V6.8z"/>
</g>
</svg>
