<?xml version="1.0" encoding="utf-8"?>
<!-- Generator: Adobe Illustrator 23.1.1, SVG Export Plug-In . SVG Version: 6.00 Build 0)  -->
<svg version="1.1" id="Layer_1" xmlns="http://www.w3.org/2000/svg" xmlns:xlink="http://www.w3.org/1999/xlink" x="0px" y="0px"
	 viewBox="0 0 16 16" style="enable-background:new 0 0 16 16;" xml:space="preserve">
<style type="text/css">
	.st0{fill:#FFFFFF;}
</style>
<title>modimg_release</title>
<path id="Combined-Shape" class="st0" d="M9.8,1c0.5,0,0.9,0.4,0.9,0.9l0,0v0.5h1.4c0.5,0,0.9,0.4,0.9,0.9l0,0V6h-0.9V3.3h-1.4v1.4
	H5.3V3.3H3.9v9.5H7v0.9H3.9c-0.5,0-0.9-0.4-0.9-0.8v-0.1V3.3c0-0.5,0.4-0.9,0.9-0.9l0,0h1.4V1.9C5.3,1.4,5.7,1,6.2,1l0,0H9.8z
	 M9.8,1.9H6.2v1.8h3.6C9.8,3.7,9.8,1.9,9.8,1.9z"/>
<path class="st0" d="M13,9.9h-2.9V8.5c0-0.5,0.4-0.9,0.8-0.9c0.4,0,0.9,0.4,0.9,0.9v0.2h0.9V8.5c0-1-0.8-1.8-1.8-1.8
	c-1,0-1.8,0.8-1.8,1.8v1.4H8.8c-0.4,0-0.7,0.3-0.7,0.7v3.2c0,0.4,0.3,0.7,0.7,0.7H13c0.4,0,0.7-0.3,0.7-0.7v-3.2
	C13.7,10.2,13.5,9.9,13,9.9z M12.8,10.8v2.8H9v-2.8H12.8z"/>
</svg>
