<?xml version="1.0" encoding="utf-8"?>
<!-- Generator: Adobe Illustrator 23.1.1, SVG Export Plug-In . SVG Version: 6.00 Build 0)  -->
<svg version="1.1" id="Layer_1" xmlns="http://www.w3.org/2000/svg" xmlns:xlink="http://www.w3.org/1999/xlink" x="0px" y="0px"
	 viewBox="0 0 16 16" style="enable-background:new 0 0 16 16;" xml:space="preserve">
<style type="text/css">
	.st0{fill-rule:evenodd;clip-rule:evenodd;fill:#FFFFFF;}
</style>
<title>modimg_startcenter</title>
<g id="modimg_startcenter">
	<g id="Fill">
		<path class="st0" d="M8.3,1.1C8.1,1,7.9,1,7.7,1.1L0.5,6.7l0.6,0.8L2,6.8V13c0,0.6,0.4,1,1,1h10c0.6,0,1-0.4,1-1V6.8l0.9,0.7
			l0.6-0.8L8.3,1.1z M9,13H7V9h2V13z M10,13V9c0-0.6-0.4-1-1-1H7C6.4,8,6,8.4,6,9v4H3V6l5-3.9L13,6v7H10z"/>
	</g>
</g>
</svg>
