<?xml version="1.0" encoding="utf-8"?>
<!-- Generator: Adobe Illustrator 23.1.1, SVG Export Plug-In . SVG Version: 6.00 Build 0)  -->
<svg version="1.1" id="Layer_1" xmlns="http://www.w3.org/2000/svg" xmlns:xlink="http://www.w3.org/1999/xlink" x="0px" y="0px"
	 viewBox="0 0 16 16" style="enable-background:new 0 0 16 16;" xml:space="preserve">
<style type="text/css">
	.st0{fill-rule:evenodd;clip-rule:evenodd;fill:#FFFFFF;}
</style>
<title>modimg_wo</title>
<g id="modimg_wo">
	<g id="Fill">
		<path class="st0" d="M5,9h4v1H5V9z M5,6.5h6v1H5V6.5z M5,11.5h2.5v1H5V11.5z M12.5,2.5H11V2c0-0.6-0.4-1-1-1H6C5.4,1,5,1.4,5,2
			v0.5H3.5c-0.6,0-1,0.4-1,1V14c0,0.6,0.4,1,1,1h9c0.6,0,1-0.4,1-1V3.5C13.5,2.9,13.1,2.5,12.5,2.5z M6,2h4v2H6V2z M12.5,14h-9V3.5
			H5V5h6V3.5h1.5V14z"/>
	</g>
</g>
</svg>
