<?xml version="1.0" encoding="utf-8"?>
<!-- Generator: Adobe Illustrator 23.1.1, SVG Export Plug-In . SVG Version: 6.00 Build 0)  -->
<svg version="1.1" id="Layer_1" xmlns="http://www.w3.org/2000/svg" xmlns:xlink="http://www.w3.org/1999/xlink" x="0px" y="0px"
	 viewBox="0 0 16 16" style="enable-background:new 0 0 16 16;" xml:space="preserve">
<style type="text/css">
	.st0{fill-rule:evenodd;clip-rule:evenodd;fill:#FFFFFF;}
</style>
<title>modimg_int</title>
<g id="modimg_int">
	<g id="Fill">
		<path class="st0" d="M14.9,7.8l-3-5.5C11.9,2.1,11.7,2,11.5,2h-7C4.3,2,4.1,2.1,4.1,2.3l-3,5.5C1,7.9,1,8.1,1.1,8.3l3,5.5
			C4.2,13.9,4.3,14,4.5,14h7c0.2,0,0.4-0.1,0.4-0.3l3-5.5C15,8.1,15,7.9,14.9,7.8L14.9,7.8z M11.5,3.5l2.2,4H8.9L11.5,3.5z M8,7.1
			L5.4,3h5.2L8,7.1z M4.5,3.5l2.6,4H2.3L4.5,3.5z M2.3,8.5h4.8l-2.6,4L2.3,8.5z M8,8.9l2.6,4.1H5.4L8,8.9z M11.5,12.5l-2.6-4h4.8
			L11.5,12.5z"/>
	</g>
</g>
</svg>
