<?xml version="1.0" encoding="UTF-8"?>
<svg width="14px" height="14px" viewBox="0 0 14 14" version="1.1" xmlns="http://www.w3.org/2000/svg" xmlns:xlink="http://www.w3.org/1999/xlink">
    <title>SVGID_1_</title>
    <g id="Page-1" stroke="none" stroke-width="1" fill="none" fill-rule="evenodd">
        <path d="M7,0 C5.1,0 3.3,0.8 2,2.1 L2,0 L1,0 L1,4 L5,4 L5,3 L2.5,3 C4.4,0.8 7.6,0.4 10.1,1.9 C12.6,3.4 13.6,6.5 12.6,9.2 C11.6,11.9 8.7,13.5 5.9,12.9 C3.1,12.4 1,9.9 1,7 L0,7 C0,10.9 3.1,14 7,14 C10.9,14 14,10.9 14,7 C14,3.1 10.9,0 7,0 Z M9.3,10 L6.5,7.2 L6.5,2.5 L7.5,2.5 L7.5,6.8 L10,9.3 L9.3,10 Z" id="SVGID_1_" fill="#FFFFFF"></path>
    </g>
</svg>