<?xml version="1.0" encoding="utf-8"?>
<!-- Generator: Adobe Illustrator 25.2.1, SVG Export Plug-In . SVG Version: 6.00 Build 0)  -->
<svg version="1.1" id="Layer_1" xmlns="http://www.w3.org/2000/svg" xmlns:xlink="http://www.w3.org/1999/xlink" x="0px" y="0px"
	 viewBox="0 0 16 16" style="enable-background:new 0 0 16 16;" xml:space="preserve">
<style type="text/css">
	.st0{fill-rule:evenodd;clip-rule:evenodd;fill:#FFFFFF;}
</style>
<g id="App-icon-_x28_s32_x29_">
	<g id="Maximo-Mobile-app-icon-_x28_32px_x29_" transform="translate(-273.000000, -53.000000)">
		<g id="Shape" transform="translate(271.000000, 51.000000)">
			<path class="st0" d="M14.5,12.5c0.3,0,0.5,0.2,0.5,0.4l0,0.1v0.5h1v1h-1v1c0,0.8-0.6,1.5-1.4,1.5l-0.1,0h-1.7
				c-0.3,0-0.6-0.2-0.8-0.4l0-0.1l-0.5-0.8c-0.1-0.2-0.3-0.2-0.4-0.2l0,0c-0.1,0-0.3,0-0.4,0.2l0,0.1l-0.5,0.8
				C8.9,16.8,8.6,17,8.3,17l-0.1,0H6.5C5.7,17,5,16.4,5,15.6l0-0.1V15H4v-1h1v-1c0-0.3,0.2-0.5,0.4-0.5l0.1,0H14.5z M14,13.5H6v2
				C6,15.8,6.2,16,6.4,16l0.1,0h1.7l0.5-0.8c0.3-0.5,0.8-0.7,1.3-0.7c0.5,0,1,0.2,1.2,0.6l0.1,0.1l0.5,0.8h1.7
				c0.3,0,0.5-0.2,0.5-0.4l0-0.1V13.5z M11,3c0.5,0,1,0.4,1,0.9L12,4v0.4c2.3,0.8,3.9,3,4,5.5l0,0.2v0.5h1v1H3v-1h1V10
				c0-2.6,1.6-4.7,3.9-5.6L8,4.4V4c0-0.5,0.4-1,0.9-1L9,3H11z M11,4H9v5H8V5.4C6.3,6.2,5.1,7.9,5,9.8L5,10v0.5h10V10
				c0-2-1.2-3.7-2.9-4.5L12,5.4V9h-1V4z"/>
		</g>
	</g>
</g>
</svg>
