<?xml version="1.0" encoding="utf-8"?>
<!-- Generator: Adobe Illustrator 23.1.1, SVG Export Plug-In . SVG Version: 6.00 Build 0)  -->
<svg version="1.1" id="Layer_1" xmlns="http://www.w3.org/2000/svg" xmlns:xlink="http://www.w3.org/1999/xlink" x="0px" y="0px"
	 viewBox="0 0 16 16" style="enable-background:new 0 0 16 16;" xml:space="preserve">
<style type="text/css">
	.st0{fill-rule:evenodd;clip-rule:evenodd;fill:#FFFFFF;}
</style>
<title>modimg_ssdr</title>
<g id="modimg_ssdr">
	<g id="Fill">
		<path class="st0" d="M5.8,15c0.6,0,1-0.4,1-1s-0.4-1-1-1s-1,0.4-1,1S5.2,15,5.8,15z M12.8,15c0.6,0,1-0.4,1-1s-0.4-1-1-1
			s-1,0.4-1,1S12.1,15,12.8,15z M14.8,3.5H3.7L3.2,1.4C3.2,1.2,3,1,2.8,1h-2v1h1.6l1.9,9.6c0,0.2,0.3,0.4,0.5,0.4h9v-1H5.2L4.8,9h9
			c0.2,0,0.4-0.2,0.5-0.4l1-4.5c0-0.2,0-0.3-0.1-0.4C15.1,3.6,14.9,3.5,14.8,3.5z M13.4,8H4.6L3.8,4.5h10.3L13.4,8z"/>
	</g>
</g>
</svg>
