<?xml version="1.0" encoding="utf-8"?>
<!-- Generator: Adobe Illustrator 23.1.1, SVG Export Plug-In . SVG Version: 6.00 Build 0)  -->
<svg version="1.1" id="Layer_1" xmlns="http://www.w3.org/2000/svg" xmlns:xlink="http://www.w3.org/1999/xlink" x="0px" y="0px"
	 viewBox="0 0 16 16" style="enable-background:new 0 0 16 16;" xml:space="preserve">
<style type="text/css">
	.st0{fill-rule:evenodd;clip-rule:evenodd;fill:#FFFFFF;}
</style>
<title>modimg_util</title>
<g id="modimg_util">
	<g id="Fill">
		<path class="st0" d="M15,3.5h-2.6c-0.2-1.2-1.3-2-2.4-2s-2.2,0.8-2.4,2H1v1h6.6c0.2,1.2,1.3,2,2.4,2s2.2-0.8,2.4-2H15V3.5z
			 M10,5.5C9.2,5.5,8.5,4.8,8.5,4S9.2,2.5,10,2.5s1.5,0.7,1.5,1.5S10.8,5.5,10,5.5L10,5.5z M1,12.5h2.5c0.2,1.2,1.3,2,2.5,2
			s2.2-0.8,2.4-2H15v-1H8.4c-0.2-1.2-1.3-2-2.4-2s-2.2,0.8-2.5,2H1V12.5z M4.5,12c0-0.8,0.7-1.5,1.5-1.5s1.5,0.7,1.5,1.5
			S6.8,13.5,6,13.5S4.5,12.8,4.5,12z"/>
	</g>
</g>
</svg>
