<?xml version="1.0" encoding="utf-8"?>
<!-- Generator: Adobe Illustrator 23.1.1, SVG Export Plug-In . SVG Version: 6.00 Build 0)  -->
<svg version="1.1" id="Layer_1" xmlns="http://www.w3.org/2000/svg" xmlns:xlink="http://www.w3.org/1999/xlink" x="0px" y="0px"
	 viewBox="0 0 16 16" style="enable-background:new 0 0 16 16;" xml:space="preserve">
<style type="text/css">
	.st0{fill:#FFFFFF;}
</style>
<title>modimg_pm</title>
<g id="modimg_pm">
	<g id="security">
		<polygon id="Path" class="st0" points="7,8.3 5.7,7 5,7.7 7,9.7 11,5.7 10.3,5 		"/>
		<path id="Shape" class="st0" d="M8,15l-3.1-1.6C3.1,12.4,2,10.5,2,8.5V2c0-0.6,0.4-1,1-1h10c0.6,0,1,0.4,1,1v6.5
			c0,2-1.1,3.9-2.9,4.9L8,15z M3,2v6.5c0,1.7,0.9,3.2,2.4,4L8,13.9l2.6-1.4c1.5-0.8,2.4-2.3,2.4-4V2H3z"/>
	</g>
</g>
</svg>
