<?xml version="1.0" encoding="utf-8"?>
<!-- Generator: Adobe Illustrator 23.1.1, SVG Export Plug-In . SVG Version: 6.00 Build 0)  -->
<svg version="1.1" id="Layer_1" xmlns="http://www.w3.org/2000/svg" xmlns:xlink="http://www.w3.org/1999/xlink" x="0px" y="0px"
	 viewBox="0 0 16 16" style="enable-background:new 0 0 16 16;" xml:space="preserve">
<style type="text/css">
	.st0{fill-rule:evenodd;clip-rule:evenodd;fill:#FFFFFF;}
	.st1{fill:#FFFFFF;}
</style>
<title>modimg_configItems</title>
<g id="modimg_configItems">
	<path id="Combined-Shape" class="st0" d="M15,13v1H3.8v-1H15z M13,3c0.6,0,1,0.4,1,1v7c0,0.6-0.4,1-1,1H8l0,0l0-1h5V4H3v4.4H2V4
		c0-0.6,0.4-1,1-1H13z"/>
	<path id="Path" class="st1" d="M4.8,10.6c0.3,0.2,0.7,0.3,1.1,0.3c1.2,0,2.2-1,2.2-2.2c0-0.2,0-0.4-0.1-0.6L6.6,9.5l0,0
		C6.4,9.8,6,9.9,5.6,9.8C5.2,9.7,4.9,9.4,4.8,9.1c-0.1-0.4,0-0.8,0.3-1l0,0l1.3-1.3C6.2,6.7,6.1,6.6,5.9,6.6c-1.2,0-2.2,1-2.2,2.2
		c0,0.4,0.1,0.8,0.3,1.1l-3,3l0.8,0.8L4.8,10.6z"/>
</g>
</svg>
