<?xml version="1.0" encoding="UTF-8"?>
<svg width="18px" height="18px" viewBox="0 0 18 18" version="1.1" xmlns="http://www.w3.org/2000/svg" xmlns:xlink="http://www.w3.org/1999/xlink">
    <title>Actions / Controls / dashboard / 20</title>
    <g id="Page-1" stroke="none" stroke-width="1" fill="none" fill-rule="evenodd">
        <g id="Fill" transform="translate(-1.000000, -1.000000)" fill="#FFFFFF">
            <path d="M15,13.125 L16.25,13.125 L16.25,16.25 L15,16.25 L15,13.125 Z M12.5,10 L13.75,10 L13.75,16.25 L12.5,16.25 L12.5,10 Z M6.875,16.25 C5.14996678,16.2479337 3.75206632,14.8500332 3.75,13.125 L5,13.125 C5,14.1605339 5.83946609,15 6.875,15 C7.91053391,15 8.75,14.1605339 8.75,13.125 C8.75,12.0894661 7.91053391,11.25 6.875,11.25 L6.875,10 C8.60088984,10 10,11.3991102 10,13.125 C10,14.8508898 8.60088984,16.25 6.875,16.25 Z M17.5,1.25 L2.5,1.25 C1.80992967,1.25068904 1.25068904,1.80992967 1.25,2.5 L1.25,17.5 C1.25068904,18.1900703 1.80992967,18.749311 2.5,18.75 L17.5,18.75 C18.1899278,18.7489674 18.7489674,18.1899278 18.75,17.5 L18.75,2.5 C18.749311,1.80992967 18.1900703,1.25068904 17.5,1.25 Z M17.5,6.875 L8.75,6.875 L8.75,2.5 L17.5,2.5 L17.5,6.875 Z M7.5,2.5 L7.5,6.875 L2.5,6.875 L2.5,2.5 L7.5,2.5 Z M2.5,17.5 L2.5,8.125 L17.5,8.125 L17.50125,17.5 L2.5,17.5 Z"></path>
        </g>
    </g>
</svg>