<svg t="1632551322392" class="icon" viewBox="0 0 1024 1024" version="1.1" xmlns="http://www.w3.org/2000/svg" p-id="1710" width="128" height="128"><path d="M448 853.333333h-4.266667c-12.8 0-25.6-8.533333-34.133333-21.333333-8.533333-8.533333-12.8-21.333333-12.8-34.133333V469.333333L260.266667 247.466667c-8.533333-12.8-8.533333-25.6-8.533334-38.4s12.8-25.6 25.6-34.133334c8.533333-4.266667 21.333333-8.533333 29.866667-8.533333h409.6c12.8 0 25.6 4.266667 38.4 17.066667 8.533333 8.533333 17.066667 21.333333 17.066667 38.4 0 8.533333-4.266667 21.333333-8.533334 29.866666l-136.533333 221.866667v230.4c0 17.066667-8.533333 29.866667-21.333333 42.666667l-123.733334 98.133333c-8.533333 4.266667-21.333333 8.533333-34.133333 8.533333z m-25.6-51.2z m290.133333-580.266666l-409.6 4.266666 136.533334 217.6c4.266667 8.533333 8.533333 17.066667 8.533333 29.866667v328.533333l119.466667-98.133333v-230.4c0-8.533333 4.266667-21.333333 8.533333-29.866667l136.533333-221.866666z" fill="#111111" p-id="1711"></path></svg>
