<?xml version="1.0" standalone="no"?><!DOCTYPE svg PUBLIC "-//W3C//DTD SVG 1.1//EN" "http://www.w3.org/Graphics/SVG/1.1/DTD/svg11.dtd"><svg t="1613898362095" class="icon" viewBox="0 0 1024 1024" version="1.1" xmlns="http://www.w3.org/2000/svg" p-id="2407" xmlns:xlink="http://www.w3.org/1999/xlink" width="320" height="320"><defs><style type="text/css">@font-face { font-family: element-icons; src: url("chrome-extension://moombeodfomdpjnpocobemoiaemednkg/fonts/element-icons.woff") format("woff"), url("chrome-extension://moombeodfomdpjnpocobemoiaemednkg/fonts/element-icons.ttf ") format("truetype"); }
</style></defs><path d="M768 128l0 169.984-512 0 0-169.984 512 0zM809.984 512q18.005333 0 31.018667-11.989333t13.013333-29.994667-13.013333-31.018667-31.018667-13.013333-29.994667 13.013333-11.989333 31.018667 11.989333 29.994667 29.994667 11.989333zM681.984 809.984l0-212.010667-340.010667 0 0 212.010667 340.010667 0zM809.984 342.016q52.010667 0 89.984 38.016t38.016 89.984l0 256-169.984 0 0 169.984-512 0 0-169.984-169.984 0 0-256q0-52.010667 38.016-89.984t89.984-38.016l596.010667 0z" p-id="2408"></path></svg>