<?xml version="1.0" encoding="utf-8"?>
<!-- Generator: Adobe Illustrator 16.0.3, SVG Export Plug-In . SVG Version: 6.00 Build 0)  -->
<!DOCTYPE svg PUBLIC "-//W3C//DTD SVG 1.1//EN" "http://www.w3.org/Graphics/SVG/1.1/DTD/svg11.dtd">
<svg version="1.1" id="Layer_1" xmlns="http://www.w3.org/2000/svg" xmlns:xlink="http://www.w3.org/1999/xlink" x="0px" y="0px"
	 width="32px" height="32px" viewBox="0 0 32 32" enable-background="new 0 0 32 32" xml:space="preserve">
<g>
	<path fill="#5A5A5A" d="M16,0C7.165,0,0,7.167,0,16c0,8.834,7.164,16,16,16c8.835,0,16-7.166,16-16C32,7.167,24.836,0,16,0z
		 M16,30.854C7.804,30.854,1.145,24.195,1.145,16C1.145,7.804,7.804,1.144,16,1.144c8.195,0,14.853,6.66,14.853,14.855
		C30.854,24.195,24.195,30.854,16,30.854z"/>
	<polygon fill="#5AA700" points="10.29,22.854 24,16 10.29,9.144 	"/>
</g>
</svg>
