<?xml version="1.0" encoding="utf-8"?>
<!-- Generator: Adobe Illustrator 23.1.1, SVG Export Plug-In . SVG Version: 6.00 Build 0)  -->
<svg version="1.1" id="Layer_1" xmlns="http://www.w3.org/2000/svg" xmlns:xlink="http://www.w3.org/1999/xlink" x="0px" y="0px"
	 viewBox="0 0 16 16" style="enable-background:new 0 0 16 16;" xml:space="preserve">
<style type="text/css">
	.st0{fill:#FFFFFF;}
</style>
<title>modimg_plans</title>
<g id="modimg_plans">
	<g id="data-class">
		<path id="Shape" class="st0" d="M13,8c-0.4,0-0.7,0.1-1,0.3l-1.4-1.4l1.1-1.1c0.4-0.4,0.4-1,0-1.4l-3-3C8.3,1,7.7,1,7.3,1.4l-3,3
			c-0.4,0.4-0.4,1,0,1.4l1.1,1.1L4,8.3C3.1,7.8,2,8,1.4,8.8s-0.6,1.9,0.2,2.7c0.7,0.7,1.9,0.8,2.7,0.2s1-1.8,0.5-2.6l1.4-1.4
			l1.1,1.1C7.4,8.9,7.4,8.9,7.5,9v2H6v4h4v-4H8.5V8.9c0.1,0,0.1-0.1,0.2-0.2l1.1-1.1L11.3,9c-0.5,0.8-0.3,1.8,0.3,2.4
			c0.6,0.6,1.6,0.8,2.4,0.3s1.2-1.4,0.9-2.2C14.7,8.6,13.9,8,13,8L13,8z M4,10c0,0.6-0.4,1-1,1s-1-0.4-1-1s0.4-1,1-1S4,9.4,4,10z
			 M9,12v2H7v-2H9z M8,8L5,5l3-3l3,3L8,8z M13,11c-0.6,0-1-0.4-1-1s0.4-1,1-1s1,0.4,1,1S13.6,11,13,11z"/>
	</g>
</g>
</svg>
