<?xml version="1.0" encoding="utf-8"?>
<!-- Generator: Adobe Illustrator 23.1.1, SVG Export Plug-In . SVG Version: 6.00 Build 0)  -->
<svg version="1.1" id="Layer_1" xmlns="http://www.w3.org/2000/svg" xmlns:xlink="http://www.w3.org/1999/xlink" x="0px" y="0px"
	 viewBox="0 0 16 16" style="enable-background:new 0 0 16 16;" xml:space="preserve">
<style type="text/css">
	.st0{fill-rule:evenodd;clip-rule:evenodd;fill:#FFFFFF;}
</style>
<title>modimg_security</title>
<g id="modimg_security">
	<g id="Fill">
		<path class="st0" d="M12,7h-1V4c0-1.7-1.3-3-3-3S5,2.3,5,4v3H4C3.4,7,3,7.4,3,8v6c0,0.6,0.4,1,1,1h8c0.6,0,1-0.4,1-1V8
			C13,7.4,12.6,7,12,7z M6,4c0-1.1,0.9-2,2-2s2,0.9,2,2v3H6V4z M12,14H4V8h8V14z"/>
	</g>
</g>
</svg>
