<?xml version="1.0" encoding="utf-8"?>
<!-- Generator: Adobe Illustrator 25.2.1, SVG Export Plug-In . SVG Version: 6.00 Build 0)  -->
<svg version="1.1" id="Layer_1" xmlns="http://www.w3.org/2000/svg" xmlns:xlink="http://www.w3.org/1999/xlink" x="0px" y="0px"
	 viewBox="0 0 16 16" style="enable-background:new 0 0 16 16;" xml:space="preserve">
<style type="text/css">
	.st0{fill-rule:evenodd;clip-rule:evenodd;fill:#FFFFFF;}
</style>
<g id="modimg_inventor">
	<g id="Fill">
		<path class="st0" d="M9.5,12h2v2h-2V12z M13,12h2v2h-2V12z M9.5,8.5h2v2h-2V8.5z M13,8.5h2v2h-2V8.5z M8.5,12H2V5h12v2.5h1V5
			c0-0.6-0.4-1-1-1h-3V2c0-0.6-0.4-1-1-1H6C5.4,1,5,1.4,5,2v2H2C1.4,4,1,4.4,1,5v7c0,0.6,0.4,1,1,1h6.5V12z M6,2h4v2H6V2z"/>
	</g>
</g>
</svg>
