<?xml version="1.0" encoding="utf-8"?>
<!-- Generator: Adobe Illustrator 23.1.1, SVG Export Plug-In . SVG Version: 6.00 Build 0)  -->
<svg version="1.1" id="Layer_1" xmlns="http://www.w3.org/2000/svg" xmlns:xlink="http://www.w3.org/1999/xlink" x="0px" y="0px"
	 viewBox="0 0 16 16" style="enable-background:new 0 0 16 16;" xml:space="preserve">
<style type="text/css">
	.st0{fill:#FFFFFF;}
</style>
<title>modimg_taskMgmt</title>
<g id="modimg_taskMgmt">
	<g id="task">
		<polygon id="Path" class="st0" points="7,10.1 5.2,8.3 4.5,9 7,11.5 11.5,7 10.8,6.3 		"/>
		<path id="Shape" class="st0" d="M12.5,2.5H11V2c0-0.6-0.4-1-1-1H6C5.4,1,5,1.4,5,2v0.5H3.5c-0.6,0-1,0.4-1,1V14c0,0.6,0.4,1,1,1h9
			c0.6,0,1-0.4,1-1V3.5C13.5,2.9,13.1,2.5,12.5,2.5z M6,2h4v2H6V2z M12.5,14h-9V3.5H5V5h6V3.5h1.5V14z"/>
	</g>
</g>
</svg>
