<?xml version="1.0" encoding="utf-8"?>
<!-- Generator: Adobe Illustrator 23.1.1, SVG Export Plug-In . SVG Version: 6.00 Build 0)  -->
<svg version="1.1" id="Layer_1" xmlns="http://www.w3.org/2000/svg" xmlns:xlink="http://www.w3.org/1999/xlink" x="0px" y="0px"
	 viewBox="0 0 16 16" style="enable-background:new 0 0 16 16;" xml:space="preserve">
<style type="text/css">
	.st0{fill:#FFFFFF;}
</style>
<title>modimg_scheduling_2</title>
<g id="modimg_scheduling_2">
	<g id="calendar--heat-map">
		<path id="Shape" class="st0" d="M13,2h-2V1h-1v1H6V1H5v1H3C2.4,2,2,2.4,2,3v10c0,0.6,0.4,1,1,1h10c0.6,0,1-0.4,1-1V3
			C14,2.4,13.6,2,13,2z M3,3h2v1h1V3h4v1h1V3h2v2H3V3z M3,6h2.5v3H3V6z M9.5,13h-3v-3h3V13z M9.5,9h-3V6h3V9z M10.5,13v-3H13v3H10.5
			z"/>
	</g>
</g>
</svg>
