<?xml version="1.0" encoding="UTF-8"?>
<svg width="16px" height="16px" viewBox="0 0 16 16" version="1.1" xmlns="http://www.w3.org/2000/svg" xmlns:xlink="http://www.w3.org/1999/xlink">
    <title>modimg_default</title>
    <g id="modimg_default" stroke="none" stroke-width="1" fill="none" fill-rule="evenodd">
        <g id="Fill" transform="translate(-2.000000, -2.000000)" fill="#ffffff">
            <path d="M8.125,10.625 L4.375,10.625 C3.68464406,10.625 3.125,11.1846441 3.125,11.875 L3.125,15.625 C3.125,16.3153559 3.68464406,16.875 4.375,16.875 L8.125,16.875 C8.81535594,16.875 9.375,16.3153559 9.375,15.625 L9.375,11.875 C9.375,11.1846441 8.81535594,10.625 8.125,10.625 Z M4.375,15.625 L4.375,11.875 L8.125,11.875 L8.125,15.625 L4.375,15.625 Z M11.875,13.125 L11.875,14.375 L15.625,14.375 C16.3153559,14.375 16.875,13.8153559 16.875,13.125 L16.875,4.375 C16.875,3.68464406 16.3153559,3.125 15.625,3.125 L6.875,3.125 C6.18464406,3.125 5.625,3.68464406 5.625,4.375 L5.625,8.125 L6.875,8.125 L6.875,4.375 L15.625,4.375 L15.625,13.125"></path>
        </g>
    </g>
</svg>