<?xml version="1.0" encoding="utf-8"?>
<!-- Generator: Adobe Illustrator 23.1.1, SVG Export Plug-In . SVG Version: 6.00 Build 0)  -->
<svg version="1.1" id="Layer_1" xmlns="http://www.w3.org/2000/svg" xmlns:xlink="http://www.w3.org/1999/xlink" x="0px" y="0px"
	 viewBox="0 0 16 16" style="enable-background:new 0 0 16 16;" xml:space="preserve">
<style type="text/css">
	.st0{fill-rule:evenodd;clip-rule:evenodd;fill:#FFFFFF;}
</style>
<title>modimg_purchase</title>
<g id="modimg_purchase">
	<g id="Fill">
		<path class="st0" d="M10.5,8h1v1h-1V8z M4.5,8h4v1h-4V8z M10.5,6h1v1h-1V6z M4.5,6h4v1h-4V6z M4.5,4h7v1h-7V4z M12.5,1h-9
			c-0.6,0-1,0.4-1,1v12.5C2.5,14.8,2.7,15,3,15h0.5c0.2,0,0.3-0.1,0.4-0.2L5,13.3l1.1,1.5C6.2,14.9,6.3,15,6.5,15s0.3-0.1,0.4-0.2
			L8,13.3l1.1,1.5C9.2,14.9,9.3,15,9.5,15s0.3-0.1,0.4-0.2l1.1-1.5l1.1,1.5c0.1,0.1,0.2,0.2,0.4,0.2H13c0.3,0,0.5-0.2,0.5-0.5V2
			C13.5,1.4,13.1,1,12.5,1z M12.5,13.7l-1.1-1.5C11.3,12.1,11.2,12,11,12s-0.3,0.1-0.4,0.2l-1.1,1.5l-1.1-1.5C8.3,12.1,8.2,12,8,12
			s-0.3,0.1-0.4,0.2l-1.1,1.5l-1.1-1.5C5.3,12.1,5.2,12,5,12s-0.3,0.1-0.4,0.2l-1.1,1.5V2h9V13.7z"/>
	</g>
</g>
</svg>
