<?xml version="1.0" encoding="utf-8"?>
<!-- Generator: Adobe Illustrator 23.1.1, SVG Export Plug-In . SVG Version: 6.00 Build 0)  -->
<svg version="1.1" id="Layer_1" xmlns="http://www.w3.org/2000/svg" xmlns:xlink="http://www.w3.org/1999/xlink" x="0px" y="0px"
	 viewBox="0 0 16 16" style="enable-background:new 0 0 16 16;" xml:space="preserve">
<style type="text/css">
	.st0{fill:#FFFFFF;}
</style>
<title>modimg_change</title>
<g id="modimg_change">
	<g id="change-catalog">
		<path id="Path" class="st0" d="M12,12v1h1.2c-0.6,0.6-1.4,1-2.2,1c-1.7,0-3-1.3-3-3H7c0,1.7,1,3.2,2.6,3.7
			c1.6,0.6,3.3,0.1,4.4-1.1V15h1v-3H12z"/>
		<path class="st0" d="M11,7C9.9,7,8.8,7.5,8,8.4V7H7v3h3V9H8.8c0.6-0.6,1.4-1,2.2-1c1.7,0,3,1.3,3,3h1C15,8.8,13.2,7,11,7L11,7z"/>
		<path class="st0" d="M6,14H3v-2h1v-1H3V8.5h1v-1H3V5h1V4H3V2h9v4h1V2c0-0.6-0.4-1-1-1H3C2.4,1,2,1.4,2,2v2H1v1h1v2.5H1v1h1V11H1v1
			h1v2c0,0.6,0.4,1,1,1h3V14z"/>
	</g>
</g>
</svg>
