<?xml version="1.0" encoding="utf-8"?>
<!-- Generator: Adobe Illustrator 23.1.1, SVG Export Plug-In . SVG Version: 6.00 Build 0)  -->
<svg version="1.1" id="Layer_1" xmlns="http://www.w3.org/2000/svg" xmlns:xlink="http://www.w3.org/1999/xlink" x="0px" y="0px"
	 viewBox="0 0 16 16" style="enable-background:new 0 0 16 16;" xml:space="preserve">
<style type="text/css">
	.st0{fill-rule:evenodd;clip-rule:evenodd;fill:#FFFFFF;}
</style>
<title>modimg_setup</title>
<g id="modimg_setup">
	<g id="Fill">
		<path class="st0" d="M6,2c1.4,0,2.5,1.1,2.5,2.5S7.4,7,6,7S3.5,5.9,3.5,4.5S4.6,2,6,2L6,2z M6,1C4.1,1,2.5,2.6,2.5,4.5S4.1,8,6,8
			s3.5-1.6,3.5-3.5S7.9,1,6,1z M11,15h-1v-2.5c0-1.4-1.1-2.5-2.5-2.5h-3C3.1,10,2,11.1,2,12.5V15H1v-2.5C1,10.6,2.6,9,4.5,9h3
			c1.9,0,3.5,1.6,3.5,3.5V15z M12.5,8.1l-1.3-1.3l-0.7,0.7l2,2L16,6l-0.7-0.7L12.5,8.1L12.5,8.1z"/>
	</g>
</g>
</svg>
