<?xml version="1.0" encoding="utf-8"?>
<!-- Generator: Adobe Illustrator 23.1.1, SVG Export Plug-In . SVG Version: 6.00 Build 0)  -->
<svg version="1.1" id="Layer_1" xmlns="http://www.w3.org/2000/svg" xmlns:xlink="http://www.w3.org/1999/xlink" x="0px" y="0px"
	 viewBox="0 0 16 16" style="enable-background:new 0 0 16 16;" xml:space="preserve">
<style type="text/css">
	.st0{fill:#FFFFFF;}
</style>
<title>modimg_buildinginfomodels</title>
<path class="st0" d="M14.2,8.1l-2.7-1.4V3.5c0-0.2-0.1-0.4-0.3-0.4l-3-1.5c-0.1-0.1-0.3-0.1-0.4,0l-3,1.5c-0.2,0-0.3,0.2-0.3,0.4
	v3.2L1.8,8.1c-0.2,0-0.3,0.2-0.3,0.4V12c0,0.2,0.1,0.4,0.3,0.4l3,1.5c0.1,0.1,0.3,0.1,0.4,0L8,12.6l2.8,1.4c0.1,0.1,0.3,0.1,0.4,0
	l3-1.5c0.2-0.1,0.3-0.3,0.3-0.4V8.5C14.5,8.3,14.4,8.1,14.2,8.1z M4.5,12.7l-2-1V9.3l2,1V12.7z M5,9.4L3.1,8.5L5,7.6l1.9,0.9L5,9.4z
	 M7.5,11.7l-2,1v-2.4l2-1V11.7z M7.5,7.7l-2-1V4.3l2,1V7.7z M6.1,3.5L8,2.6l1.9,0.9L8,4.4L6.1,3.5z M10.5,4.3v2.4l-2,1V5.3L10.5,4.3
	z M10.5,12.7l-2-1V9.3l2,1V12.7z M11,9.4L9.1,8.5L11,7.6l1.9,0.9L11,9.4z M13.5,11.7l-2,1v-2.4l2-1V11.7z"/>
</svg>
